/* XPM */
static char *hurricane_4_HUR[] = {
/* columns rows colors chars-per-pixel */
"23 28 4 1",
"  c green",
". c white",
"x c blue",
"* c red",
/* pixels */
"...........x      x....",
".........x     x.......",
".......x     x.........",
"......x  .. x..........",
".....x  ..  xxx........",
"....x  ..      xx......",
"....x ..         x.....",
"...x  ..  .....   x....",
"..x  ..  ........  x...",
"..x ..  ..........  x..",
"..x ..  ..****.....  x.",
"..x .. ..******..... x.",
"..x  ....******..... x.",
"..x  ....******.....  x",
"...x ....******.. ... x",
"...x .....****...  .. x",
"...x  ...........  .. x",
"....x  .........   .. x",
".....x   ......    .. x",
"......x            .  x",
"........x         .. x.",
".........xxxxxxx  .  x.",
"..............x  .. x..",
".............x  ..  x..",
"...........x   ..  x...",
".........x   ..   x....",
".......x        x......",
".......xxxxxxxx........"
};
