/* XPM */
static char *hurricane_4_DEP[] = {
/* columns rows colors chars-per-pixel */
"23 28 3 1",
"  c green",
". c blue",
"X c white",
/* pixels */
"XXXXXXXXXXXXXXXXXXXXXXX",
"XXXXXXXXXXXXXXXXXXXXXXX",
"XXXXXXXXXXXXXXXXXXXXXXX",
"XXXXXXXXX.....XXXXXXXXX",
"XXXXXXXX.     .XXXXXXXX",
"XXXXXXXX.     .XXXXXXXX",
"XXXXXXXX.    .XXXXXXXXX",
"XXXXXXXX.    .XXXXXXXXX",
"XXXXXXX.     .XXXXXXXXX",
"XXXXXXX.    .XXXXXXXXXX",
"XXXXXXX.    .XXXXXXXXXX",
"XXXXXXX.    .XXXXXXXXXX",
"XXXXXX.    .XXXXXXXXXXX",
"XXXXXX.    .XXXXXXXXXXX",
"XXXXXX.    .XXXXXXXXXXX",
"XXXXXX.    .XXXXXXXXXXX",
"XXXXX.    .XXXXXXXXXXXX",
"XXXXX.    .XXXXXXXXXXXX",
"XXXXX.    .XXXXXXXXXXXX",
"XXXX.      ........XXXX",
"XXXX.              .XXX",
"XXXX.              .XXX",
"XXXX.              .XXX",
"XXXXX..............XXXX",
"XXXXXXXXXXXXXXXXXXXXXXX",
"XXXXXXXXXXXXXXXXXXXXXXX",
"XXXXXXXXXXXXXXXXXXXXXXX",
"XXXXXXXXXXXXXXXXXXXXXXX"
};
